<svg xmlns="http://www.w3.org/2000/svg" width="20.602" height="23.816" viewBox="0 0 20.602 23.816">
  <g id="_392503_flag_notice_warning_icon" data-name="392503_flag_notice_warning_icon" transform="translate(0 0)">
    <path id="Tracé_223" data-name="Tracé 223" d="M19.1,7.968l4.312-4.843a.738.738,0,0,0,.118-.815.793.793,0,0,0-.719-.444H3.792A.778.778,0,0,0,3,2.629a.778.778,0,0,0,.792.763h17.3l-3.633,4.08a.742.742,0,0,0,0,.993l3.633,4.08H6.17V.469a.858.858,0,0,0-.849-.8.759.759,0,0,0-.736.8V23.489H6.17V14.07H22.81a.8.8,0,0,0,.72-.444.741.741,0,0,0-.118-.815Z" transform="translate(-3 0.327)" fill="#4d3223"/>
  </g>
</svg>
