<svg xmlns="http://www.w3.org/2000/svg" width="25.538" height="23.808" viewBox="0 0 25.538 23.808">
  <g id="g1265" transform="translate(0 0)">
    <path id="rect1251" d="M14.779,292.65a1.337,1.337,0,0,0-.771.251L2.494,301.234a1.164,1.164,0,0,0-.494.939v10.4a4.052,4.052,0,0,0,4.167,3.885h17.2a4.052,4.052,0,0,0,4.167-3.885v-10.4a1.163,1.163,0,0,0-.491-.939L15.577,292.9a1.338,1.338,0,0,0-.8-.251Zm.01,2.7,10.2,7.405v9.818a1.53,1.53,0,0,1-1.614,1.5H19.876v-5.952a4.96,4.96,0,0,0-5.108-4.762,4.96,4.96,0,0,0-5.108,4.762v5.952H6.167a1.53,1.53,0,0,1-1.614-1.5v-9.818Zm-.02,10.4a2.44,2.44,0,0,1,2.554,2.381v5.952H12.215v-5.952A2.44,2.44,0,0,1,14.769,305.744Z" transform="translate(-2 -292.65)" fill="#4d3223"/>
  </g>
</svg>
