<svg xmlns="http://www.w3.org/2000/svg" width="25.237" height="19.282" viewBox="0 0 25.237 19.282">
  <g id="Teamwork" transform="translate(1 1.028)">
    <g id="Groupe_1" data-name="Groupe 1" transform="translate(0 0)">
      <path id="Tracé_214" data-name="Tracé 214" d="M25.911,36.894a.613.613,0,0,1-.27-.539.7.7,0,0,1,.142-.438c.028-.035.054-.069.074-.1a3.745,3.745,0,0,0,.368-.635,4.618,4.618,0,0,0-.106-3.964,2.526,2.526,0,0,0-2.8-1.492,3.216,3.216,0,0,0-2.193,2.794,4.43,4.43,0,0,0,.767,3.385.72.72,0,0,1,.147.439v0a.615.615,0,0,1-.27.544,5.487,5.487,0,0,0-2.46,3.2,9.723,9.723,0,0,0-.485,3.144v.779a1.152,1.152,0,0,0,.97,1.272h8.1a1.152,1.152,0,0,0,.97-1.272V43.23a9.7,9.7,0,0,0-.486-3.143A5.482,5.482,0,0,0,25.911,36.894Z" transform="translate(-12.221 -28.036)" fill="none" stroke="#4d3223" stroke-width="2"/>
      <path id="Tracé_215" data-name="Tracé 215" d="M48.164,36.57A5.482,5.482,0,0,0,45.7,33.377a.614.614,0,0,1-.27-.539.7.7,0,0,1,.142-.439c.028-.035.054-.069.074-.1a3.737,3.737,0,0,0,.368-.634,4.618,4.618,0,0,0-.106-3.964,2.526,2.526,0,0,0-2.8-1.492,3.215,3.215,0,0,0-2.193,2.794,4.43,4.43,0,0,0,.767,3.385.719.719,0,0,1,.147.439v0a.615.615,0,0,1-.27.544,4.492,4.492,0,0,0-1.217.973,7.1,7.1,0,0,1,2.292,3.419,11.341,11.341,0,0,1,.577,3.7v.3h4.469a1.152,1.152,0,0,0,.97-1.272v-.787A9.7,9.7,0,0,0,48.164,36.57Z" transform="translate(-25.414 -26.148)" fill="none" stroke="#4d3223" stroke-width="2"/>
      <path id="Tracé_216" data-name="Tracé 216" d="M10.15,34.352a4.488,4.488,0,0,0-1.22-.975.614.614,0,0,1-.27-.539A.7.7,0,0,1,8.8,32.4c.027-.035.054-.069.074-.1a3.741,3.741,0,0,0,.368-.634,4.618,4.618,0,0,0-.106-3.964,2.526,2.526,0,0,0-2.8-1.492,3.215,3.215,0,0,0-2.193,2.794,4.43,4.43,0,0,0,.767,3.385.719.719,0,0,1,.147.439v0a.615.615,0,0,1-.27.544,5.487,5.487,0,0,0-2.46,3.2A9.724,9.724,0,0,0,1.84,39.72v.78a1.152,1.152,0,0,0,.97,1.272H7.279v-.294a11.369,11.369,0,0,1,.576-3.7,7.106,7.106,0,0,1,2.294-3.427Z" transform="translate(-1.84 -26.148)" fill="none" stroke="#4d3223" stroke-width="2"/>
    </g>
  </g>
</svg>
