<svg id="Instagram" xmlns="http://www.w3.org/2000/svg" width="37.072" height="37.072" viewBox="0 0 37.072 37.072">
  <path id="Tracé_3" data-name="Tracé 3" d="M18.536,3.3a56.836,56.836,0,0,1,7.414.206,9.553,9.553,0,0,1,3.5.618,7.233,7.233,0,0,1,3.5,3.5,9.553,9.553,0,0,1,.618,3.5c0,1.854.206,2.471.206,7.414a56.836,56.836,0,0,1-.206,7.414,9.553,9.553,0,0,1-.618,3.5,7.233,7.233,0,0,1-3.5,3.5,9.553,9.553,0,0,1-3.5.618c-1.854,0-2.471.206-7.414.206a56.836,56.836,0,0,1-7.414-.206,9.553,9.553,0,0,1-3.5-.618,7.233,7.233,0,0,1-3.5-3.5,9.553,9.553,0,0,1-.618-3.5c0-1.854-.206-2.471-.206-7.414A56.836,56.836,0,0,1,3.5,11.122a9.553,9.553,0,0,1,.618-3.5,7.4,7.4,0,0,1,1.442-2.06A3.482,3.482,0,0,1,7.62,4.119a9.553,9.553,0,0,1,3.5-.618A56.836,56.836,0,0,1,18.536,3.3m0-3.3a60.855,60.855,0,0,0-7.62.206,12.715,12.715,0,0,0-4.531.824,8.063,8.063,0,0,0-3.3,2.06,8.063,8.063,0,0,0-2.06,3.3,9.384,9.384,0,0,0-.824,4.531A60.855,60.855,0,0,0,0,18.536a60.855,60.855,0,0,0,.206,7.62,12.715,12.715,0,0,0,.824,4.531,8.063,8.063,0,0,0,2.06,3.3,8.063,8.063,0,0,0,3.3,2.06,12.715,12.715,0,0,0,4.531.824,60.853,60.853,0,0,0,7.62.206,60.853,60.853,0,0,0,7.62-.206,12.715,12.715,0,0,0,4.531-.824,8.641,8.641,0,0,0,5.355-5.355,12.715,12.715,0,0,0,.824-4.531c0-2.06.206-2.677.206-7.62a60.853,60.853,0,0,0-.206-7.62,12.715,12.715,0,0,0-.824-4.531,8.063,8.063,0,0,0-2.06-3.3,8.063,8.063,0,0,0-3.3-2.06A12.715,12.715,0,0,0,26.157.206,60.854,60.854,0,0,0,18.536,0m0,9.062a9.321,9.321,0,0,0-9.474,9.474,9.474,9.474,0,1,0,9.474-9.474m0,15.653a6.068,6.068,0,0,1-6.179-6.179,6.068,6.068,0,0,1,6.179-6.179,6.068,6.068,0,0,1,6.179,6.179,6.068,6.068,0,0,1-6.179,6.179m9.886-18.33A2.266,2.266,0,1,0,30.688,8.65a2.286,2.286,0,0,0-2.266-2.266" fill="#fff" fill-rule="evenodd"/>
</svg>
