<svg xmlns="http://www.w3.org/2000/svg" width="40.043" height="32.479" viewBox="0 0 40.043 32.479">
  <path id="Tracé_2" data-name="Tracé 2" d="M50.68,34.479c15.127,0,23.358-12.458,23.358-23.358V10.009a18.083,18.083,0,0,0,4-4.227,18.467,18.467,0,0,1-4.672,1.335A8.655,8.655,0,0,0,76.93,2.667a20.4,20.4,0,0,1-5.117,2A7.945,7.945,0,0,0,65.807,2a8.358,8.358,0,0,0-8.231,8.231,4.337,4.337,0,0,0,.222,1.78A23,23,0,0,1,40.892,3.335,8.519,8.519,0,0,0,39.78,7.561a8.839,8.839,0,0,0,3.559,6.9,7.5,7.5,0,0,1-3.782-1.112h0a8.13,8.13,0,0,0,6.674,8.009,6.858,6.858,0,0,1-2.225.222,3.786,3.786,0,0,1-1.557-.222,8.428,8.428,0,0,0,7.786,5.784A16.8,16.8,0,0,1,40,30.7a6.159,6.159,0,0,1-2-.222,21,21,0,0,0,12.68,4" transform="translate(-38 -2)" fill="#fff" fill-rule="evenodd"/>
</svg>
