<svg xmlns="http://www.w3.org/2000/svg" width="368.417" height="147.339" viewBox="0 0 368.417 147.339">
  <g id="emptyMember" transform="translate(-6571 3113)">
    <g id="Soustraction_1" data-name="Soustraction 1" transform="translate(10554.583 -1850.234)" fill="none" stroke-dasharray="5">
      <path d="M-3615.166-1115.427h-350v-12.295l307.911-54.293a4.966,4.966,0,0,0,3.227-2.056,4.968,4.968,0,0,0,.828-3.737l-9.808-55.62h47.842v128Z" stroke="none"/>
      <path d="M -3615.165771484375 -1115.426879882812 L -3615.165771484375 -1115.427856445312 L -3620.164794921875 -1115.427856445312 L -3620.164794921875 -1116.427856445312 L -3616.165771484375 -1116.427856445312 L -3616.165771484375 -1120.562377929688 L -3615.165771484375 -1120.562377929688 L -3615.165771484375 -1115.426879882812 Z M -3625.164794921875 -1115.427856445312 L -3630.164794921875 -1115.427856445312 L -3630.164794921875 -1116.427856445312 L -3625.164794921875 -1116.427856445312 L -3625.164794921875 -1115.427856445312 Z M -3635.164794921875 -1115.427856445312 L -3640.164794921875 -1115.427856445312 L -3640.164794921875 -1116.427856445312 L -3635.164794921875 -1116.427856445312 L -3635.164794921875 -1115.427856445312 Z M -3645.164794921875 -1115.427856445312 L -3650.164794921875 -1115.427856445312 L -3650.164794921875 -1116.427856445312 L -3645.164794921875 -1116.427856445312 L -3645.164794921875 -1115.427856445312 Z M -3655.164794921875 -1115.427856445312 L -3660.164794921875 -1115.427856445312 L -3660.164794921875 -1116.427856445312 L -3655.164794921875 -1116.427856445312 L -3655.164794921875 -1115.427856445312 Z M -3665.164794921875 -1115.427856445312 L -3670.164794921875 -1115.427856445312 L -3670.164794921875 -1116.427856445312 L -3665.164794921875 -1116.427856445312 L -3665.164794921875 -1115.427856445312 Z M -3675.164794921875 -1115.427856445312 L -3680.164794921875 -1115.427856445312 L -3680.164794921875 -1116.427856445312 L -3675.164794921875 -1116.427856445312 L -3675.164794921875 -1115.427856445312 Z M -3685.164794921875 -1115.427856445312 L -3690.164794921875 -1115.427856445312 L -3690.164794921875 -1116.427856445312 L -3685.164794921875 -1116.427856445312 L -3685.164794921875 -1115.427856445312 Z M -3695.164794921875 -1115.427856445312 L -3700.164794921875 -1115.427856445312 L -3700.164794921875 -1116.427856445312 L -3695.164794921875 -1116.427856445312 L -3695.164794921875 -1115.427856445312 Z M -3705.164794921875 -1115.427856445312 L -3710.164794921875 -1115.427856445312 L -3710.164794921875 -1116.427856445312 L -3705.164794921875 -1116.427856445312 L -3705.164794921875 -1115.427856445312 Z M -3715.164794921875 -1115.427856445312 L -3720.164794921875 -1115.427856445312 L -3720.164794921875 -1116.427856445312 L -3715.164794921875 -1116.427856445312 L -3715.164794921875 -1115.427856445312 Z M -3725.164794921875 -1115.427856445312 L -3730.164794921875 -1115.427856445312 L -3730.164794921875 -1116.427856445312 L -3725.164794921875 -1116.427856445312 L -3725.164794921875 -1115.427856445312 Z M -3735.164794921875 -1115.427856445312 L -3740.164794921875 -1115.427856445312 L -3740.164794921875 -1116.427856445312 L -3735.164794921875 -1116.427856445312 L -3735.164794921875 -1115.427856445312 Z M -3745.164794921875 -1115.427856445312 L -3750.164794921875 -1115.427856445312 L -3750.164794921875 -1116.427856445312 L -3745.164794921875 -1116.427856445312 L -3745.164794921875 -1115.427856445312 Z M -3755.164794921875 -1115.427856445312 L -3760.164794921875 -1115.427856445312 L -3760.164794921875 -1116.427856445312 L -3755.164794921875 -1116.427856445312 L -3755.164794921875 -1115.427856445312 Z M -3765.164794921875 -1115.427856445312 L -3770.164794921875 -1115.427856445312 L -3770.164794921875 -1116.427856445312 L -3765.164794921875 -1116.427856445312 L -3765.164794921875 -1115.427856445312 Z M -3775.164794921875 -1115.427856445312 L -3780.164794921875 -1115.427856445312 L -3780.164794921875 -1116.427856445312 L -3775.164794921875 -1116.427856445312 L -3775.164794921875 -1115.427856445312 Z M -3785.164794921875 -1115.427856445312 L -3790.164794921875 -1115.427856445312 L -3790.164794921875 -1116.427856445312 L -3785.164794921875 -1116.427856445312 L -3785.164794921875 -1115.427856445312 Z M -3795.164794921875 -1115.427856445312 L -3800.164794921875 -1115.427856445312 L -3800.164794921875 -1116.427856445312 L -3795.164794921875 -1116.427856445312 L -3795.164794921875 -1115.427856445312 Z M -3805.164794921875 -1115.427856445312 L -3810.164794921875 -1115.427856445312 L -3810.164794921875 -1116.427856445312 L -3805.164794921875 -1116.427856445312 L -3805.164794921875 -1115.427856445312 Z M -3815.164794921875 -1115.427856445312 L -3820.164794921875 -1115.427856445312 L -3820.164794921875 -1116.427856445312 L -3815.164794921875 -1116.427856445312 L -3815.164794921875 -1115.427856445312 Z M -3825.164794921875 -1115.427856445312 L -3830.164794921875 -1115.427856445312 L -3830.164794921875 -1116.427856445312 L -3825.164794921875 -1116.427856445312 L -3825.164794921875 -1115.427856445312 Z M -3835.164794921875 -1115.427856445312 L -3840.164794921875 -1115.427856445312 L -3840.164794921875 -1116.427856445312 L -3835.164794921875 -1116.427856445312 L -3835.164794921875 -1115.427856445312 Z M -3845.164794921875 -1115.427856445312 L -3850.164794921875 -1115.427856445312 L -3850.164794921875 -1116.427856445312 L -3845.164794921875 -1116.427856445312 L -3845.164794921875 -1115.427856445312 Z M -3855.164794921875 -1115.427856445312 L -3860.164794921875 -1115.427856445312 L -3860.164794921875 -1116.427856445312 L -3855.164794921875 -1116.427856445312 L -3855.164794921875 -1115.427856445312 Z M -3865.164794921875 -1115.427856445312 L -3870.164794921875 -1115.427856445312 L -3870.164794921875 -1116.427856445312 L -3865.164794921875 -1116.427856445312 L -3865.164794921875 -1115.427856445312 Z M -3875.164794921875 -1115.427856445312 L -3880.164794921875 -1115.427856445312 L -3880.164794921875 -1116.427856445312 L -3875.164794921875 -1116.427856445312 L -3875.164794921875 -1115.427856445312 Z M -3885.164794921875 -1115.427856445312 L -3890.164794921875 -1115.427856445312 L -3890.164794921875 -1116.427856445312 L -3885.164794921875 -1116.427856445312 L -3885.164794921875 -1115.427856445312 Z M -3895.164794921875 -1115.427856445312 L -3900.164794921875 -1115.427856445312 L -3900.164794921875 -1116.427856445312 L -3895.164794921875 -1116.427856445312 L -3895.164794921875 -1115.427856445312 Z M -3905.164794921875 -1115.427856445312 L -3910.164794921875 -1115.427856445312 L -3910.164794921875 -1116.427856445312 L -3905.164794921875 -1116.427856445312 L -3905.164794921875 -1115.427856445312 Z M -3915.164794921875 -1115.427856445312 L -3920.164794921875 -1115.427856445312 L -3920.164794921875 -1116.427856445312 L -3915.164794921875 -1116.427856445312 L -3915.164794921875 -1115.427856445312 Z M -3925.164794921875 -1115.427856445312 L -3930.164794921875 -1115.427856445312 L -3930.164794921875 -1116.427856445312 L -3925.164794921875 -1116.427856445312 L -3925.164794921875 -1115.427856445312 Z M -3935.164794921875 -1115.427856445312 L -3940.164794921875 -1115.427856445312 L -3940.164794921875 -1116.427856445312 L -3935.164794921875 -1116.427856445312 L -3935.164794921875 -1115.427856445312 Z M -3945.164794921875 -1115.427856445312 L -3950.164794921875 -1115.427856445312 L -3950.164794921875 -1116.427856445312 L -3945.164794921875 -1116.427856445312 L -3945.164794921875 -1115.427856445312 Z M -3955.164794921875 -1115.427856445312 L -3960.164794921875 -1115.427856445312 L -3960.164794921875 -1116.427856445312 L -3955.164794921875 -1116.427856445312 L -3955.164794921875 -1115.427856445312 Z M -3965.16650390625 -1115.427856445312 L -3965.16650390625 -1116.427856445312 L -3965.16650390625 -1115.427856445312 Z M -3964.16650390625 -1115.427856445312 L -3965.16650390625 -1115.427856445312 C -3965.16650390625 -1115.427856445312 -3965.16650390625 -1115.840209960938 -3965.16650390625 -1116.427856445312 L -3965.16650390625 -1116.427856445312 C -3965.16650390625 -1117.886596679688 -3965.16650390625 -1120.426147460938 -3965.16650390625 -1120.426147460938 L -3964.16650390625 -1120.426147460938 L -3964.16650390625 -1115.427856445312 Z M -3964.16650390625 -1125.426147460938 L -3965.16650390625 -1125.426147460938 C -3965.16650390625 -1125.426147460938 -3965.16650390625 -1127.72265625 -3965.16650390625 -1127.72265625 L -3965.16650390625 -1127.72265625 C -3965.16650390625 -1127.72265625 -3965.16650390625 -1127.72265625 -3965.16650390625 -1127.72265625 L -3965.13671875 -1127.727905273438 C -3965.13671875 -1127.727905273438 -3965.13671875 -1127.727905273438 -3965.136474609375 -1127.727905273438 L -3962.504150390625 -1128.192138671875 L -3962.330322265625 -1127.207275390625 L -3964.16650390625 -1126.883544921875 L -3964.16650390625 -1125.426147460938 Z M -3957.406494140625 -1128.075561523438 L -3957.580078125 -1129.060302734375 C -3957.580078125 -1129.060302734375 -3956.599609375 -1129.233154296875 -3955.513671875 -1129.424682617188 L -3955.51171875 -1129.425048828125 C -3955.498046875 -1129.427490234375 -3955.484619140625 -1129.429809570312 -3955.470947265625 -1129.432250976562 L -3955.469482421875 -1129.432495117188 C -3955.466552734375 -1129.432983398438 -3955.463623046875 -1129.43359375 -3955.460693359375 -1129.43408203125 L -3952.656005859375 -1129.928588867188 L -3952.482421875 -1128.94384765625 L -3957.406494140625 -1128.075561523438 Z M -3947.558349609375 -1129.81201171875 L -3947.73193359375 -1130.796875 L -3946.31005859375 -1131.047607421875 C -3946.307373046875 -1131.048095703125 -3946.304443359375 -1131.048583984375 -3946.302001953125 -1131.048950195312 L -3946.30029296875 -1131.04931640625 C -3946.29638671875 -1131.049926757812 -3946.292236328125 -1131.050659179688 -3946.288330078125 -1131.051391601562 L -3946.287841796875 -1131.051513671875 C -3946.28369140625 -1131.05224609375 -3946.27978515625 -1131.052856445312 -3946.275634765625 -1131.053588867188 L -3946.273193359375 -1131.054077148438 C -3946.269287109375 -1131.0546875 -3946.265625 -1131.055419921875 -3946.261962890625 -1131.056030273438 L -3946.2607421875 -1131.056274414062 C -3944.809814453125 -1131.31201171875 -3942.807861328125 -1131.6650390625 -3942.807861328125 -1131.6650390625 L -3942.63427734375 -1130.680297851562 L -3947.558349609375 -1129.81201171875 Z M -3937.710205078125 -1131.548461914062 L -3937.8837890625 -1132.533325195312 C -3937.8837890625 -1132.533325195312 -3935.598388671875 -1132.936279296875 -3934.141357421875 -1133.193237304688 L -3934.130615234375 -1133.195190429688 C -3934.12841796875 -1133.195556640625 -3934.12646484375 -1133.19580078125 -3934.124267578125 -1133.196166992188 L -3934.1083984375 -1133.198974609375 C -3934.1005859375 -1133.200439453125 -3934.0927734375 -1133.201782226562 -3934.085205078125 -1133.203125 L -3934.077880859375 -1133.204467773438 C -3934.07763671875 -1133.204467773438 -3934.0771484375 -1133.204467773438 -3934.076904296875 -1133.20458984375 L -3932.959716796875 -1133.401611328125 L -3932.7861328125 -1132.416748046875 L -3937.710205078125 -1131.548461914062 Z M -3927.862060546875 -1133.285034179688 L -3928.035888671875 -1134.269775390625 L -3927.615966796875 -1134.34375 C -3927.615966796875 -1134.343872070312 -3927.615966796875 -1134.343872070312 -3927.61572265625 -1134.343872070312 L -3927.598876953125 -1134.346801757812 C -3927.598876953125 -1134.346801757812 -3927.598876953125 -1134.346801757812 -3927.598876953125 -1134.346801757812 L -3927.587158203125 -1134.348876953125 C -3927.581298828125 -1134.349975585938 -3927.5751953125 -1134.35107421875 -3927.569091796875 -1134.35205078125 L -3927.567626953125 -1134.352294921875 C -3927.565185546875 -1134.352783203125 -3927.562744140625 -1134.353271484375 -3927.560302734375 -1134.353637695312 L -3927.554931640625 -1134.354614257812 C -3927.54833984375 -1134.355712890625 -3927.541748046875 -1134.35693359375 -3927.53515625 -1134.358032226562 L -3927.52880859375 -1134.359252929688 C -3927.528076171875 -1134.359375 -3927.527099609375 -1134.359497070312 -3927.5263671875 -1134.359619140625 L -3927.515869140625 -1134.361450195312 C -3926.250244140625 -1134.584716796875 -3923.11181640625 -1135.138061523438 -3923.11181640625 -1135.138061523438 L -3922.93798828125 -1134.153198242188 L -3927.862060546875 -1133.285034179688 Z M -3918.01416015625 -1135.021484375 L -3918.187744140625 -1136.00634765625 L -3913.263671875 -1136.87451171875 L -3913.090087890625 -1135.8896484375 L -3918.01416015625 -1135.021484375 Z M -3908.166015625 -1136.757934570312 L -3908.339599609375 -1137.742797851562 C -3908.339599609375 -1137.742797851562 -3903.41552734375 -1138.610961914062 -3903.41552734375 -1138.610961914062 L -3903.241943359375 -1137.626220703125 L -3908.166015625 -1136.757934570312 Z M -3898.31787109375 -1138.494384765625 L -3898.491455078125 -1139.479248046875 L -3893.567626953125 -1140.347534179688 L -3893.393798828125 -1139.362670898438 L -3898.31787109375 -1138.494384765625 Z M -3888.4697265625 -1140.23095703125 L -3888.6435546875 -1141.215698242188 C -3888.6435546875 -1141.215698242188 -3887.755615234375 -1141.372314453125 -3886.733642578125 -1141.552490234375 L -3886.700439453125 -1141.558349609375 C -3886.698974609375 -1141.55859375 -3886.69775390625 -1141.558837890625 -3886.6962890625 -1141.55908203125 L -3883.719482421875 -1142.083984375 L -3883.5458984375 -1141.09912109375 L -3888.4697265625 -1140.23095703125 Z M -3878.621826171875 -1141.967407226562 L -3878.79541015625 -1142.9521484375 L -3877.02392578125 -1143.264526367188 C -3877.0107421875 -1143.266845703125 -3876.99755859375 -1143.269165039062 -3876.984375 -1143.271606445312 L -3876.96875 -1143.274291992188 C -3875.5673828125 -1143.521362304688 -3873.871337890625 -1143.820434570312 -3873.871337890625 -1143.820434570312 L -3873.69775390625 -1142.835571289062 L -3878.621826171875 -1141.967407226562 Z M -3868.773681640625 -1143.703857421875 L -3868.947265625 -1144.688598632812 C -3868.947265625 -1144.688598632812 -3866.81396484375 -1145.064819335938 -3865.35546875 -1145.322021484375 L -3865.347412109375 -1145.323486328125 C -3865.34423828125 -1145.323974609375 -3865.3408203125 -1145.324584960938 -3865.337646484375 -1145.3251953125 L -3864.023193359375 -1145.556884765625 L -3863.849609375 -1144.572143554688 L -3868.773681640625 -1143.703857421875 Z M -3858.925537109375 -1145.440307617188 L -3859.099365234375 -1146.425170898438 L -3858.332275390625 -1146.560424804688 C -3858.33056640625 -1146.560668945312 -3858.32861328125 -1146.56103515625 -3858.32666015625 -1146.561401367188 L -3858.3095703125 -1146.564453125 C -3858.30859375 -1146.564575195312 -3858.307373046875 -1146.564819335938 -3858.30615234375 -1146.56494140625 L -3858.286865234375 -1146.568359375 C -3858.286376953125 -1146.568481445312 -3858.2861328125 -1146.568603515625 -3858.28564453125 -1146.568603515625 L -3858.277099609375 -1146.570190429688 C -3858.275634765625 -1146.570434570312 -3858.274658203125 -1146.570556640625 -3858.273193359375 -1146.57080078125 L -3858.267333984375 -1146.571899414062 C -3858.264892578125 -1146.572265625 -3858.26220703125 -1146.57275390625 -3858.259765625 -1146.573120117188 L -3858.257080078125 -1146.573608398438 C -3856.850341796875 -1146.821655273438 -3854.17529296875 -1147.293334960938 -3854.17529296875 -1147.293334960938 L -3854.001708984375 -1146.30859375 L -3858.925537109375 -1145.440307617188 Z M -3849.07763671875 -1147.176879882812 L -3849.251220703125 -1148.16162109375 L -3844.3271484375 -1149.029907226562 L -3844.153564453125 -1148.045043945312 L -3849.07763671875 -1147.176879882812 Z M -3839.2294921875 -1148.913330078125 L -3839.403076171875 -1149.898071289062 C -3839.403076171875 -1149.898071289062 -3834.47900390625 -1150.766357421875 -3834.47900390625 -1150.766357421875 L -3834.305419921875 -1149.781616210938 L -3839.2294921875 -1148.913330078125 Z M -3829.38134765625 -1150.649780273438 L -3829.554931640625 -1151.634643554688 L -3824.631103515625 -1152.502807617188 L -3824.457275390625 -1151.51806640625 L -3829.38134765625 -1150.649780273438 Z M -3819.533447265625 -1152.386352539062 L -3819.70703125 -1153.37109375 C -3819.70703125 -1153.37109375 -3818.913330078125 -1153.510986328125 -3817.963134765625 -1153.678588867188 L -3814.782958984375 -1154.239379882812 L -3814.609375 -1153.254516601562 L -3819.533447265625 -1152.386352539062 Z M -3809.685302734375 -1154.122802734375 L -3809.85888671875 -1155.107543945312 L -3807.743896484375 -1155.48046875 C -3807.74267578125 -1155.480712890625 -3807.7412109375 -1155.48095703125 -3807.739990234375 -1155.481201171875 L -3807.71484375 -1155.485595703125 C -3807.7138671875 -1155.48583984375 -3807.712890625 -1155.485961914062 -3807.712158203125 -1155.486083984375 L -3807.700439453125 -1155.488159179688 C -3807.68359375 -1155.491088867188 -3807.667236328125 -1155.494018554688 -3807.650390625 -1155.496948242188 L -3807.6474609375 -1155.49755859375 C -3806.3388671875 -1155.728271484375 -3804.934814453125 -1155.975830078125 -3804.934814453125 -1155.975830078125 L -3804.76123046875 -1154.990966796875 L -3809.685302734375 -1154.122802734375 Z M -3799.837158203125 -1155.859252929688 L -3800.0107421875 -1156.843994140625 C -3800.0107421875 -1156.843994140625 -3798.028564453125 -1157.193603515625 -3796.579345703125 -1157.449096679688 L -3795.086669921875 -1157.712280273438 L -3794.9130859375 -1156.727416992188 L -3799.837158203125 -1155.859252929688 Z M -3789.989013671875 -1157.595703125 L -3790.162841796875 -1158.58056640625 L -3788.921630859375 -1158.79931640625 C -3788.920654296875 -1158.799560546875 -3788.919189453125 -1158.7998046875 -3788.91796875 -1158.800048828125 L -3788.83349609375 -1158.81494140625 C -3787.375244140625 -1159.072021484375 -3785.23876953125 -1159.44873046875 -3785.23876953125 -1159.44873046875 L -3785.06494140625 -1158.463989257812 L -3789.989013671875 -1157.595703125 Z M -3780.14111328125 -1159.332153320312 L -3780.314697265625 -1160.317016601562 L -3775.390625 -1161.185302734375 L -3775.217041015625 -1160.200439453125 L -3780.14111328125 -1159.332153320312 Z M -3770.29296875 -1161.068603515625 L -3770.466552734375 -1162.053466796875 C -3770.466552734375 -1162.053466796875 -3765.54248046875 -1162.921752929688 -3765.54248046875 -1162.921752929688 L -3765.368896484375 -1161.936889648438 L -3770.29296875 -1161.068603515625 Z M -3760.44482421875 -1162.80517578125 L -3760.618408203125 -1163.789916992188 L -3755.694580078125 -1164.658203125 L -3755.520751953125 -1163.67333984375 L -3760.44482421875 -1162.80517578125 Z M -3750.5966796875 -1164.541625976562 L -3750.7705078125 -1165.526489257812 C -3750.7705078125 -1165.526489257812 -3750.074462890625 -1165.649169921875 -3749.205810546875 -1165.802368164062 L -3745.846435546875 -1166.394653320312 L -3745.6728515625 -1165.409912109375 L -3750.5966796875 -1164.541625976562 Z M -3740.748779296875 -1166.278076171875 L -3740.92236328125 -1167.262939453125 L -3738.461181640625 -1167.696899414062 C -3738.460205078125 -1167.697021484375 -3738.459716796875 -1167.697143554688 -3738.458984375 -1167.697265625 L -3738.40673828125 -1167.706420898438 C -3738.401611328125 -1167.707397460938 -3738.396240234375 -1167.708374023438 -3738.39111328125 -1167.709228515625 L -3738.374755859375 -1167.712158203125 C -3738.37353515625 -1167.71240234375 -3738.372314453125 -1167.712524414062 -3738.371337890625 -1167.712768554688 L -3738.35546875 -1167.715454101562 C -3738.349365234375 -1167.716674804688 -3738.343017578125 -1167.7177734375 -3738.336669921875 -1167.718872070312 L -3738.324951171875 -1167.720947265625 C -3738.318603515625 -1167.722045898438 -3738.312255859375 -1167.72314453125 -3738.305908203125 -1167.724243164062 L -3738.2939453125 -1167.726318359375 C -3737.120849609375 -1167.933227539062 -3735.998291015625 -1168.131103515625 -3735.998291015625 -1168.131103515625 L -3735.82470703125 -1167.146362304688 L -3740.748779296875 -1166.278076171875 Z M -3730.900634765625 -1168.0146484375 L -3731.07421875 -1168.999389648438 C -3731.07421875 -1168.999389648438 -3729.754638671875 -1169.232055664062 -3728.481689453125 -1169.45654296875 L -3726.150146484375 -1169.86767578125 L -3725.9765625 -1168.8828125 L -3730.900634765625 -1168.0146484375 Z M -3721.052490234375 -1169.751098632812 L -3721.226318359375 -1170.73583984375 L -3719.672119140625 -1171.009887695312 C -3719.6689453125 -1171.010498046875 -3719.665771484375 -1171.010986328125 -3719.66259765625 -1171.011596679688 L -3719.616455078125 -1171.019653320312 C -3719.61474609375 -1171.02001953125 -3719.613037109375 -1171.020263671875 -3719.611328125 -1171.020629882812 L -3719.5888671875 -1171.024658203125 C -3719.587646484375 -1171.024780273438 -3719.586181640625 -1171.025024414062 -3719.585205078125 -1171.025268554688 L -3719.568115234375 -1171.028198242188 C -3719.56298828125 -1171.029174804688 -3719.558349609375 -1171.030029296875 -3719.55322265625 -1171.030883789062 L -3719.551025390625 -1171.03125 C -3719.547607421875 -1171.031860351562 -3719.544189453125 -1171.032470703125 -3719.541015625 -1171.033081054688 L -3719.535400390625 -1171.034057617188 C -3719.533203125 -1171.034423828125 -3719.531005859375 -1171.034790039062 -3719.528564453125 -1171.03515625 L -3719.518310546875 -1171.036987304688 C -3718.095947265625 -1171.287841796875 -3716.30224609375 -1171.604125976562 -3716.30224609375 -1171.604125976562 L -3716.12841796875 -1170.619262695312 L -3721.052490234375 -1169.751098632812 Z M -3711.20458984375 -1171.487548828125 L -3711.378173828125 -1172.472412109375 L -3706.4541015625 -1173.340576171875 L -3706.280517578125 -1172.355834960938 L -3711.20458984375 -1171.487548828125 Z M -3701.3564453125 -1173.223999023438 L -3701.530029296875 -1174.208862304688 C -3701.530029296875 -1174.208862304688 -3696.60595703125 -1175.077026367188 -3696.60595703125 -1175.077026367188 L -3696.432373046875 -1174.09228515625 L -3701.3564453125 -1173.223999023438 Z M -3691.50830078125 -1174.960571289062 L -3691.681884765625 -1175.9453125 L -3686.7578125 -1176.813598632812 L -3686.584228515625 -1175.828735351562 L -3691.50830078125 -1174.960571289062 Z M -3681.66015625 -1176.697021484375 L -3681.833984375 -1177.681762695312 C -3681.833984375 -1177.681762695312 -3681.26904296875 -1177.781372070312 -3680.521728515625 -1177.913208007812 L -3680.5205078125 -1177.913330078125 C -3680.5078125 -1177.915649414062 -3680.494873046875 -1177.91796875 -3680.482177734375 -1177.920166015625 L -3680.480712890625 -1177.92041015625 C -3680.477783203125 -1177.9208984375 -3680.474609375 -1177.921508789062 -3680.4716796875 -1177.921997070312 L -3680.46630859375 -1177.922973632812 C -3680.463623046875 -1177.923461914062 -3680.4609375 -1177.923828125 -3680.458251953125 -1177.92431640625 L -3680.436767578125 -1177.92822265625 C -3680.43603515625 -1177.92822265625 -3680.435791015625 -1177.928344726562 -3680.435302734375 -1177.928466796875 L -3676.909912109375 -1178.550048828125 L -3676.736083984375 -1177.565307617188 L -3681.66015625 -1176.697021484375 Z M -3671.812255859375 -1178.433471679688 L -3671.98583984375 -1179.418334960938 L -3669.286376953125 -1179.894287109375 C -3669.285888671875 -1179.894287109375 -3669.285888671875 -1179.894409179688 -3669.285400390625 -1179.894409179688 L -3669.275634765625 -1179.896240234375 C -3669.27294921875 -1179.896606445312 -3669.270263671875 -1179.897094726562 -3669.267822265625 -1179.897583007812 L -3669.231201171875 -1179.903930664062 C -3668.10498046875 -1180.1025390625 -3667.061767578125 -1180.286499023438 -3667.061767578125 -1180.286499023438 L -3666.88818359375 -1179.3017578125 L -3671.812255859375 -1178.433471679688 Z M -3661.964111328125 -1180.169921875 L -3662.1376953125 -1181.15478515625 C -3662.1376953125 -1181.15478515625 -3657.255615234375 -1182.015625 -3657.255615234375 -1182.015625 C -3657.255615234375 -1182.015625 -3657.255615234375 -1182.015625 -3657.255615234375 -1182.015625 C -3657.250732421875 -1182.0166015625 -3657.245849609375 -1182.017578125 -3657.24072265625 -1182.018188476562 C -3657.240234375 -1182.018310546875 -3657.23974609375 -1182.018432617188 -3657.239013671875 -1182.0185546875 C -3657.230712890625 -1182.02001953125 -3657.22216796875 -1182.021606445312 -3657.213623046875 -1182.023193359375 L -3657.031982421875 -1181.039794921875 L -3657.08203125 -1181.03076171875 L -3661.964111328125 -1180.169921875 Z M -3652.569091796875 -1184.66748046875 L -3653.494140625 -1185.047485351562 C -3653.3955078125 -1185.28759765625 -3653.316162109375 -1185.534301757812 -3653.256591796875 -1185.785400390625 C -3653.256591796875 -1185.785522460938 -3653.256591796875 -1185.785522460938 -3653.25634765625 -1185.78564453125 C -3653.25390625 -1185.796142578125 -3653.25146484375 -1185.806762695312 -3653.2490234375 -1185.8173828125 C -3653.2490234375 -1185.8173828125 -3653.2490234375 -1185.8173828125 -3653.2490234375 -1185.8173828125 C -3653.247314453125 -1185.824340820312 -3653.245849609375 -1185.831298828125 -3653.244384765625 -1185.838256835938 C -3653.244140625 -1185.838500976562 -3653.244140625 -1185.8388671875 -3653.244140625 -1185.838989257812 C -3653.242431640625 -1185.845947265625 -3653.240966796875 -1185.852905273438 -3653.239501953125 -1185.859741210938 C -3653.239501953125 -1185.85986328125 -3653.239501953125 -1185.860107421875 -3653.239501953125 -1185.860107421875 C -3653.23779296875 -1185.867065429688 -3653.236328125 -1185.873901367188 -3653.23486328125 -1185.880859375 C -3653.23486328125 -1185.881225585938 -3653.234619140625 -1185.881591796875 -3653.234619140625 -1185.882080078125 C -3653.23388671875 -1185.88525390625 -3653.233154296875 -1185.888305664062 -3653.232666015625 -1185.891479492188 C -3653.232421875 -1185.891723632812 -3653.232421875 -1185.891967773438 -3653.232421875 -1185.892211914062 C -3653.231689453125 -1185.895629882812 -3653.23095703125 -1185.899047851562 -3653.230224609375 -1185.902587890625 C -3653.230224609375 -1185.902587890625 -3653.230224609375 -1185.902587890625 -3653.230224609375 -1185.902587890625 C -3653.2294921875 -1185.906005859375 -3653.228759765625 -1185.909301757812 -3653.22802734375 -1185.91259765625 C -3653.22802734375 -1185.912963867188 -3653.22802734375 -1185.913452148438 -3653.227783203125 -1185.913818359375 C -3653.2265625 -1185.920532226562 -3653.22509765625 -1185.92724609375 -3653.2236328125 -1185.933959960938 C -3653.2236328125 -1185.934448242188 -3653.223388671875 -1185.934936523438 -3653.223388671875 -1185.935424804688 C -3653.22265625 -1185.938720703125 -3653.221923828125 -1185.94189453125 -3653.221435546875 -1185.945190429688 C -3653.221435546875 -1185.9453125 -3653.221435546875 -1185.9453125 -3653.221435546875 -1185.9453125 C -3653.220703125 -1185.94873046875 -3653.219970703125 -1185.952026367188 -3653.21923828125 -1185.955444335938 C -3653.21923828125 -1185.955932617188 -3653.218994140625 -1185.95654296875 -3653.218994140625 -1185.95703125 C -3653.218505859375 -1185.9599609375 -3653.2177734375 -1185.962768554688 -3653.21728515625 -1185.965698242188 C -3653.21728515625 -1185.966186523438 -3653.217041015625 -1185.966674804688 -3653.217041015625 -1185.967163085938 C -3653.21630859375 -1185.970581054688 -3653.215576171875 -1185.973876953125 -3653.215087890625 -1185.977294921875 C -3653.21484375 -1185.9775390625 -3653.21484375 -1185.9775390625 -3653.21484375 -1185.977783203125 C -3653.21435546875 -1185.980834960938 -3653.213623046875 -1185.98388671875 -3653.213134765625 -1185.987060546875 C -3653.212890625 -1185.987670898438 -3653.212890625 -1185.98828125 -3653.212646484375 -1185.988891601562 C -3653.212158203125 -1185.9921875 -3653.21142578125 -1185.995483398438 -3653.2109375 -1185.998779296875 C -3653.2109375 -1185.998901367188 -3653.210693359375 -1185.9990234375 -3653.210693359375 -1185.999145507812 C -3653.210205078125 -1186.002197265625 -3653.20947265625 -1186.00537109375 -3653.208984375 -1186.008422851562 C -3653.208740234375 -1186.009155273438 -3653.208740234375 -1186.009887695312 -3653.20849609375 -1186.0107421875 C -3653.207275390625 -1186.017211914062 -3653.2060546875 -1186.023559570312 -3653.205078125 -1186.030029296875 C -3653.204833984375 -1186.030883789062 -3653.20458984375 -1186.031616210938 -3653.20458984375 -1186.032348632812 C -3653.2041015625 -1186.035034179688 -3653.20361328125 -1186.037963867188 -3653.203125 -1186.040649414062 C -3653.202880859375 -1186.041259765625 -3653.202880859375 -1186.041625976562 -3653.20263671875 -1186.042236328125 C -3653.2021484375 -1186.04541015625 -3653.20166015625 -1186.048461914062 -3653.200927734375 -1186.051635742188 C -3653.200927734375 -1186.052490234375 -3653.20068359375 -1186.05322265625 -3653.20068359375 -1186.054077148438 C -3653.2001953125 -1186.056762695312 -3653.19970703125 -1186.059326171875 -3653.19921875 -1186.06201171875 C -3653.198974609375 -1186.062622070312 -3653.198974609375 -1186.063232421875 -3653.19873046875 -1186.06396484375 C -3653.1982421875 -1186.067260742188 -3653.19775390625 -1186.070434570312 -3653.197021484375 -1186.07373046875 C -3653.197021484375 -1186.074096679688 -3653.197021484375 -1186.074462890625 -3653.197021484375 -1186.074829101562 C -3653.196533203125 -1186.077758789062 -3653.19580078125 -1186.080688476562 -3653.1953125 -1186.083618164062 C -3653.1953125 -1186.084350585938 -3653.195068359375 -1186.0849609375 -3653.195068359375 -1186.085693359375 C -3653.19384765625 -1186.092163085938 -3653.19287109375 -1186.098754882812 -3653.191650390625 -1186.105346679688 C -3653.191650390625 -1186.106079101562 -3653.19140625 -1186.106689453125 -3653.19140625 -1186.107421875 C -3653.19091796875 -1186.110229492188 -3653.1904296875 -1186.113159179688 -3653.18994140625 -1186.116088867188 C -3653.18994140625 -1186.116577148438 -3653.189697265625 -1186.116943359375 -3653.189697265625 -1186.117309570312 C -3653.189208984375 -1186.12060546875 -3653.188720703125 -1186.123901367188 -3653.18798828125 -1186.127197265625 C -3653.18798828125 -1186.127807617188 -3653.18798828125 -1186.12841796875 -3653.187744140625 -1186.129028320312 C -3653.187255859375 -1186.131713867188 -3653.18701171875 -1186.13427734375 -3653.1865234375 -1186.136962890625 C -3653.186279296875 -1186.137817382812 -3653.186279296875 -1186.138549804688 -3653.18603515625 -1186.139404296875 C -3653.185546875 -1186.142578125 -3653.18505859375 -1186.145751953125 -3653.1845703125 -1186.149047851562 C -3653.1845703125 -1186.1494140625 -3653.184326171875 -1186.14990234375 -3653.184326171875 -1186.150268554688 C -3653.183837890625 -1186.153198242188 -3653.183349609375 -1186.155883789062 -3653.18310546875 -1186.158813476562 C -3653.182861328125 -1186.159545898438 -3653.182861328125 -1186.160400390625 -3653.1826171875 -1186.161254882812 C -3653.18212890625 -1186.164428710938 -3653.181640625 -1186.167602539062 -3653.18115234375 -1186.1708984375 C -3653.18115234375 -1186.171020507812 -3653.18115234375 -1186.171142578125 -3653.18115234375 -1186.171264648438 C -3653.1806640625 -1186.174194335938 -3653.18017578125 -1186.177368164062 -3653.1796875 -1186.180297851562 C -3653.179443359375 -1186.181274414062 -3653.179443359375 -1186.182250976562 -3653.17919921875 -1186.18310546875 C -3653.1787109375 -1186.18603515625 -3653.178466796875 -1186.18896484375 -3653.177978515625 -1186.19189453125 C -3653.177978515625 -1186.192260742188 -3653.177734375 -1186.1923828125 -3653.177734375 -1186.192626953125 C -3653.17724609375 -1186.195922851562 -3653.1767578125 -1186.199096679688 -3653.17626953125 -1186.202392578125 C -3653.17626953125 -1186.203125 -3653.176025390625 -1186.203857421875 -3653.176025390625 -1186.20458984375 C -3653.175537109375 -1186.20751953125 -3653.175048828125 -1186.21044921875 -3653.1748046875 -1186.21337890625 C -3653.1748046875 -1186.213745117188 -3653.174560546875 -1186.213989257812 -3653.174560546875 -1186.214477539062 C -3653.174072265625 -1186.2177734375 -3653.173583984375 -1186.221069335938 -3653.173095703125 -1186.224365234375 C -3653.173095703125 -1186.224975585938 -3653.1728515625 -1186.225708007812 -3653.1728515625 -1186.226318359375 C -3653.172607421875 -1186.22900390625 -3653.172119140625 -1186.231689453125 -3653.171630859375 -1186.234375 C -3653.171630859375 -1186.235107421875 -3653.171630859375 -1186.23583984375 -3653.17138671875 -1186.236572265625 C -3653.1708984375 -1186.239868164062 -3653.17041015625 -1186.2431640625 -3653.169921875 -1186.246459960938 C -3653.169921875 -1186.24658203125 -3653.169921875 -1186.246704101562 -3653.169921875 -1186.246704101562 C -3653.16943359375 -1186.25 -3653.169189453125 -1186.253051757812 -3653.168701171875 -1186.25634765625 C -3653.168701171875 -1186.256958007812 -3653.16845703125 -1186.257690429688 -3653.16845703125 -1186.25830078125 C -3653.16748046875 -1186.26513671875 -3653.16650390625 -1186.271728515625 -3653.165771484375 -1186.278442382812 C -3653.16552734375 -1186.278930664062 -3653.16552734375 -1186.279418945312 -3653.16552734375 -1186.27978515625 C -3653.1650390625 -1186.282958984375 -3653.164794921875 -1186.286254882812 -3653.164306640625 -1186.289428710938 C -3653.164306640625 -1186.289672851562 -3653.164306640625 -1186.289794921875 -3653.164306640625 -1186.2900390625 C -3653.163818359375 -1186.29345703125 -3653.163330078125 -1186.296997070312 -3653.162841796875 -1186.300415039062 C -3653.162841796875 -1186.300659179688 -3653.162841796875 -1186.300903320312 -3653.162841796875 -1186.30126953125 C -3653.162353515625 -1186.304443359375 -3653.161865234375 -1186.307739257812 -3653.16162109375 -1186.310913085938 C -3653.161376953125 -1186.311279296875 -3653.161376953125 -1186.3115234375 -3653.161376953125 -1186.311889648438 C -3653.16064453125 -1186.31884765625 -3653.15966796875 -1186.325805664062 -3653.158935546875 -1186.332763671875 C -3653.15869140625 -1186.333129882812 -3653.15869140625 -1186.333251953125 -3653.15869140625 -1186.333618164062 C -3653.157958984375 -1186.340454101562 -3653.156982421875 -1186.347290039062 -3653.15625 -1186.354248046875 C -3653.15625 -1186.354736328125 -3653.15625 -1186.355224609375 -3653.156005859375 -1186.355712890625 C -3653.1552734375 -1186.362548828125 -3653.154541015625 -1186.369384765625 -3653.15380859375 -1186.376220703125 C -3653.15380859375 -1186.376586914062 -3653.15380859375 -1186.377075195312 -3653.153564453125 -1186.37744140625 C -3653.1533203125 -1186.380737304688 -3653.15283203125 -1186.383911132812 -3653.152587890625 -1186.387084960938 C -3653.152587890625 -1186.387329101562 -3653.152587890625 -1186.387573242188 -3653.152587890625 -1186.3876953125 C -3653.152099609375 -1186.391235351562 -3653.15185546875 -1186.394653320312 -3653.1513671875 -1186.398193359375 C -3653.1513671875 -1186.3984375 -3653.1513671875 -1186.398681640625 -3653.1513671875 -1186.398803710938 C -3653.15087890625 -1186.402099609375 -3653.150634765625 -1186.405395507812 -3653.150146484375 -1186.40869140625 C -3653.150146484375 -1186.409057617188 -3653.150146484375 -1186.409301757812 -3653.150146484375 -1186.40966796875 C -3653.1494140625 -1186.416748046875 -3653.148681640625 -1186.423706054688 -3653.14794921875 -1186.4306640625 C -3653.14794921875 -1186.430908203125 -3653.14794921875 -1186.43115234375 -3653.14794921875 -1186.431396484375 C -3653.147216796875 -1186.4384765625 -3653.146484375 -1186.445556640625 -3653.145751953125 -1186.452758789062 C -3653.145751953125 -1186.452758789062 -3653.145751953125 -1186.452880859375 -3653.145751953125 -1186.453002929688 C -3653.144775390625 -1186.463745117188 -3653.143798828125 -1186.474609375 -3653.142822265625 -1186.4853515625 C -3653.142822265625 -1186.485473632812 -3653.142822265625 -1186.485473632812 -3653.142822265625 -1186.485595703125 C -3653.1064453125 -1186.892456054688 -3653.1201171875 -1187.30615234375 -3653.185546875 -1187.719360351562 C -3653.185546875 -1187.719604492188 -3653.185546875 -1187.719848632812 -3653.185546875 -1187.720092773438 C -3653.186767578125 -1187.727172851562 -3653.18798828125 -1187.734252929688 -3653.18896484375 -1187.741455078125 C -3653.189208984375 -1187.74169921875 -3653.189208984375 -1187.742065429688 -3653.189208984375 -1187.742431640625 C -3653.189697265625 -1187.745849609375 -3653.1904296875 -1187.749389648438 -3653.19091796875 -1187.752807617188 C -3653.19091796875 -1187.752807617188 -3653.19091796875 -1187.7529296875 -3653.19091796875 -1187.7529296875 C -3653.191650390625 -1187.756469726562 -3653.192138671875 -1187.760009765625 -3653.192626953125 -1187.763549804688 C -3653.19287109375 -1187.764038085938 -3653.19287109375 -1187.764404296875 -3653.19287109375 -1187.764892578125 C -3653.193603515625 -1187.76806640625 -3653.194091796875 -1187.771240234375 -3653.194580078125 -1187.7744140625 C -3653.194580078125 -1187.774658203125 -3653.194580078125 -1187.775024414062 -3653.19482421875 -1187.775390625 C -3653.1953125 -1187.77880859375 -3653.196044921875 -1187.782470703125 -3653.196533203125 -1187.785888671875 C -3653.196533203125 -1187.786254882812 -3653.196533203125 -1187.786499023438 -3653.19677734375 -1187.786743164062 C -3653.197265625 -1187.789794921875 -3653.19775390625 -1187.792846679688 -3653.1982421875 -1187.7958984375 C -3653.198486328125 -1187.796752929688 -3653.198486328125 -1187.797485351562 -3653.19873046875 -1187.798217773438 C -3653.19921875 -1187.801513671875 -3653.199951171875 -1187.804931640625 -3653.200439453125 -1187.808227539062 L -3653.20458984375 -1187.831665039062 C -3653.20458984375 -1187.83203125 -3653.20458984375 -1187.832397460938 -3653.204833984375 -1187.832885742188 L -3653.205810546875 -1187.838623046875 C -3653.205810546875 -1187.838623046875 -3653.205810546875 -1187.838745117188 -3653.205810546875 -1187.838745117188 L -3653.20703125 -1187.845458984375 C -3653.20703125 -1187.845581054688 -3653.20703125 -1187.845703125 -3653.20703125 -1187.845825195312 L -3653.208251953125 -1187.853149414062 C -3653.208251953125 -1187.853149414062 -3653.208251953125 -1187.853271484375 -3653.20849609375 -1187.853393554688 L -3653.208984375 -1187.856567382812 C -3653.208984375 -1187.85693359375 -3653.208984375 -1187.857421875 -3653.209228515625 -1187.857788085938 L -3653.209228515625 -1187.85888671875 C -3653.20947265625 -1187.859252929688 -3653.20947265625 -1187.859619140625 -3653.20947265625 -1187.859985351562 L -3653.209716796875 -1187.860473632812 C -3653.209716796875 -1187.861083984375 -3653.2099609375 -1187.861694335938 -3653.2099609375 -1187.862426757812 L -3653.210205078125 -1187.863525390625 C -3653.210205078125 -1187.863525390625 -3653.210205078125 -1187.863647460938 -3653.210205078125 -1187.863647460938 L -3653.21142578125 -1187.870361328125 C -3653.21142578125 -1187.870361328125 -3653.21142578125 -1187.870361328125 -3653.21142578125 -1187.870483398438 L -3653.212158203125 -1187.87451171875 C -3653.212158203125 -1187.874877929688 -3653.212158203125 -1187.875244140625 -3653.21240234375 -1187.87548828125 L -3653.212890625 -1187.878662109375 C -3653.2783203125 -1188.249877929688 -3653.580078125 -1189.961303710938 -3653.580078125 -1189.961303710938 L -3652.59521484375 -1190.134887695312 L -3652.215576171875 -1187.982055664062 C -3652.017333984375 -1186.859008789062 -3652.1396484375 -1185.712890625 -3652.569091796875 -1184.66748046875 Z M -3654.4482421875 -1194.885375976562 C -3654.4482421875 -1194.885375976562 -3655.316650390625 -1199.809326171875 -3655.316650390625 -1199.809326171875 L -3654.331787109375 -1199.983032226562 L -3653.463623046875 -1195.058959960938 L -3654.4482421875 -1194.885375976562 Z M -3656.184814453125 -1204.7333984375 C -3656.184814453125 -1204.7333984375 -3657.05322265625 -1209.657470703125 -3657.05322265625 -1209.657470703125 L -3656.068359375 -1209.8310546875 L -3655.199951171875 -1204.907104492188 L -3656.184814453125 -1204.7333984375 Z M -3657.92138671875 -1214.581420898438 C -3657.92138671875 -1214.581420898438 -3658.789794921875 -1219.505493164062 -3658.789794921875 -1219.505493164062 L -3657.804931640625 -1219.67919921875 L -3656.9365234375 -1214.755126953125 L -3657.92138671875 -1214.581420898438 Z M -3659.657958984375 -1224.429565429688 L -3660.526123046875 -1229.353515625 L -3659.54150390625 -1229.527221679688 L -3658.673095703125 -1224.603149414062 L -3659.657958984375 -1224.429565429688 Z M -3661.39453125 -1234.277587890625 L -3662.2626953125 -1239.20166015625 L -3661.278076171875 -1239.375244140625 L -3660.40966796875 -1234.451293945312 L -3661.39453125 -1234.277587890625 Z M -3657.2998046875 -1242.42822265625 L -3662.2998046875 -1242.42822265625 L -3662.2998046875 -1243.42822265625 C -3662.2998046875 -1243.42822265625 -3657.2998046875 -1243.42822265625 -3657.2998046875 -1243.42822265625 L -3657.2998046875 -1242.42822265625 Z M -3647.2998046875 -1242.42822265625 L -3652.2998046875 -1242.42822265625 L -3652.2998046875 -1243.42822265625 L -3647.2998046875 -1243.42822265625 L -3647.2998046875 -1242.42822265625 Z M -3642.2998046875 -1242.42822265625 L -3642.2998046875 -1243.42822265625 C -3642.2998046875 -1243.42822265625 -3641.258056640625 -1243.42822265625 -3640.12548828125 -1243.42822265625 L -3637.2998046875 -1243.42822265625 L -3637.2998046875 -1242.428344726562 L -3642.2998046875 -1242.42822265625 Z M -3627.2998046875 -1242.428344726562 L -3632.2998046875 -1242.428344726562 L -3632.2998046875 -1243.428344726562 L -3631.11328125 -1243.428344726562 C -3629.634521484375 -1243.428344726562 -3627.2998046875 -1243.428344726562 -3627.2998046875 -1243.428344726562 L -3627.2998046875 -1242.428344726562 Z M -3617.2998046875 -1242.428344726562 L -3622.2998046875 -1242.428344726562 L -3622.2998046875 -1243.428344726562 L -3617.2998046875 -1243.428344726562 L -3617.2998046875 -1242.428344726562 Z M -3615.165771484375 -1235.562377929688 L -3616.165771484375 -1235.562377929688 L -3616.165771484375 -1240.562377929688 L -3615.165771484375 -1240.562377929688 L -3615.165771484375 -1235.562377929688 Z M -3615.165771484375 -1225.562377929688 L -3616.165771484375 -1225.562377929688 L -3616.165771484375 -1230.562377929688 L -3615.165771484375 -1230.562377929688 L -3615.165771484375 -1225.562377929688 Z M -3615.165771484375 -1215.562377929688 L -3616.165771484375 -1215.562377929688 L -3616.165771484375 -1220.562377929688 L -3615.165771484375 -1220.562377929688 L -3615.165771484375 -1215.562377929688 Z M -3615.165771484375 -1205.562377929688 L -3616.165771484375 -1205.562377929688 L -3616.165771484375 -1210.562377929688 L -3615.165771484375 -1210.562377929688 L -3615.165771484375 -1205.562377929688 Z M -3615.165771484375 -1195.562377929688 L -3616.165771484375 -1195.562377929688 L -3616.165771484375 -1200.562377929688 L -3615.165771484375 -1200.562377929688 L -3615.165771484375 -1195.562377929688 Z M -3615.165771484375 -1185.562377929688 L -3616.165771484375 -1185.562377929688 L -3616.165771484375 -1190.562377929688 L -3615.165771484375 -1190.562377929688 L -3615.165771484375 -1185.562377929688 Z M -3615.165771484375 -1175.562377929688 L -3616.165771484375 -1175.562377929688 L -3616.165771484375 -1180.562377929688 L -3615.165771484375 -1180.562377929688 L -3615.165771484375 -1175.562377929688 Z M -3615.165771484375 -1165.562377929688 L -3616.165771484375 -1165.562377929688 L -3616.165771484375 -1170.562377929688 L -3615.165771484375 -1170.562377929688 L -3615.165771484375 -1165.562377929688 Z M -3615.165771484375 -1155.562377929688 L -3616.165771484375 -1155.562377929688 L -3616.165771484375 -1160.562377929688 L -3615.165771484375 -1160.562377929688 L -3615.165771484375 -1155.562377929688 Z M -3615.165771484375 -1145.562377929688 L -3616.165771484375 -1145.562377929688 L -3616.165771484375 -1150.562377929688 L -3615.165771484375 -1150.562377929688 L -3615.165771484375 -1145.562377929688 Z M -3615.165771484375 -1135.562377929688 L -3616.165771484375 -1135.562377929688 L -3616.165771484375 -1140.562377929688 L -3615.165771484375 -1140.562377929688 L -3615.165771484375 -1135.562377929688 Z M -3615.165771484375 -1125.562377929688 L -3616.165771484375 -1125.562377929688 L -3616.165771484375 -1130.562377929688 L -3615.165771484375 -1130.562377929688 L -3615.165771484375 -1125.562377929688 Z" stroke="none" fill="#707070"/>
    </g>
    <g id="Groupe_32" data-name="Groupe 32" transform="matrix(0.996, -0.087, 0.087, 0.996, 6051.716, -3706.768)">
      <rect id="Rectangle_1099" data-name="Rectangle 1099" width="336.688" height="108.159" rx="5" transform="translate(463 666)" fill="#fff"/>
      <circle id="Ellipse_21" data-name="Ellipse 21" cx="42.304" cy="42.304" r="42.304" transform="translate(476.084 678.211)" fill="#f0f0f0"/>
      <rect id="Rectangle_1100" data-name="Rectangle 1100" width="146.538" height="23.551" rx="11.775" transform="translate(579.009 692.167)" fill="#f0f0f0"/>
      <rect id="Rectangle_1101" data-name="Rectangle 1101" width="102.925" height="15.7" rx="7.85" transform="translate(582.498 723.568)" fill="#f0f0f0"/>
    </g>
  </g>
</svg>
